<?xml version="1.0" encoding="utf-8"?>
<svg width="512px" height="512px" viewBox="0 0 512 512" version="1.1" xmlns:xlink="http://www.w3.org/1999/xlink" xmlns="http://www.w3.org/2000/svg">
  <defs>
    <filter filterUnits="userSpaceOnUse" color-interpolation-filters="sRGB" id="filter_1">
      <feFlood flood-opacity="0" result="BackgroundImageFix" />
      <feColorMatrix in="SourceAlpha" type="matrix" values="0 0 0 0 0 0 0 0 0 0 0 0 0 0 0 0 0 0 127 0" />
      <feMorphology radius="18" operator="dilate" in="SourceAlpha" result="effect0_dropShadow" />
      <feOffset dx="0" dy="0" />
      <feGaussianBlur stdDeviation="8.5" />
      <feColorMatrix type="matrix" values="0 0 0 0 0.9254902 0 0 0 0 0.827451 0 0 0 0 0.83137256 0 0 0 0.8980392 0" />
      <feBlend mode="normal" in2="BackgroundImageFix" result="effect0_dropShadow" />
      <feBlend mode="normal" in="SourceGraphic" in2="effect0_dropShadow" result="shape" />
    </filter>
    <filter filterUnits="userSpaceOnUse" color-interpolation-filters="sRGB" id="filter_2">
      <feFlood flood-opacity="0" result="BackgroundImageFix" />
      <feBlend mode="normal" in="SourceGraphic" in2="BackgroundImageFix" result="shape" />
      <feColorMatrix in="SourceAlpha" type="matrix" values="0 0 0 0 0 0 0 0 0 0 0 0 0 0 0 0 0 0 127 0" result="hardAlpha" />
      <feMorphology radius="4" operator="erode" in="SourceAlpha" result="effect0_innerShadow" />
      <feOffset dx="0" dy="2" />
      <feGaussianBlur stdDeviation="8" />
      <feComposite in2="hardAlpha" operator="arithmetic" k2="-1" k3="1" />
      <feColorMatrix type="matrix" values="0 0 0 0 0.39215687 0 0 0 0 0.39215687 0 0 0 0 0.39215687 0 0 0 0.49803922 0" />
      <feBlend mode="normal" in2="shape" result="effect0_innerShadow" />
    </filter>
    <filter filterUnits="userSpaceOnUse" color-interpolation-filters="sRGB" id="filter_3">
      <feFlood flood-opacity="0" result="BackgroundImageFix" />
      <feColorMatrix in="SourceAlpha" type="matrix" values="0 0 0 0 0 0 0 0 0 0 0 0 0 0 0 0 0 0 127 0" />
      <feOffset dx="2" dy="2" />
      <feGaussianBlur stdDeviation="2" />
      <feColorMatrix type="matrix" values="0 0 0 0 0.39215687 0 0 0 0 0.39215687 0 0 0 0 0.39215687 0 0 0 0.49803922 0" />
      <feBlend mode="normal" in2="BackgroundImageFix" result="effect0_dropShadow" />
      <feBlend mode="normal" in="SourceGraphic" in2="effect0_dropShadow" result="shape" />
    </filter>
    <path d="M162.363 49.8255L263.126 150.588Q263.265 150.727 263.396 150.873Q263.528 151.018 263.653 151.17Q263.777 151.322 263.894 151.479Q264.011 151.637 264.121 151.8Q264.23 151.964 264.331 152.132Q264.431 152.3 264.524 152.474Q264.617 152.647 264.701 152.824Q264.785 153.002 264.86 153.183Q264.935 153.365 265.001 153.55Q265.067 153.734 265.124 153.922Q265.181 154.11 265.229 154.301Q265.277 154.491 265.315 154.684Q265.353 154.876 265.382 155.071Q265.411 155.265 265.43 155.46Q265.449 155.656 265.459 155.852Q265.469 156.048 265.469 156.244Q265.469 156.441 265.459 156.637Q265.449 156.833 265.43 157.028Q265.411 157.224 265.382 157.418Q265.353 157.612 265.315 157.805Q265.277 157.997 265.229 158.188Q265.181 158.378 265.124 158.566Q265.067 158.754 265.001 158.939Q264.935 159.124 264.86 159.305Q264.785 159.487 264.701 159.664Q264.617 159.842 264.524 160.015Q264.431 160.188 264.331 160.357Q264.23 160.525 264.121 160.688Q264.011 160.852 263.894 161.009Q263.777 161.167 263.653 161.319Q263.528 161.471 263.396 161.616Q263.265 161.762 263.126 161.9L162.363 262.663Q162.224 262.802 162.079 262.934Q161.933 263.066 161.781 263.19Q161.63 263.315 161.472 263.432Q161.314 263.549 161.151 263.658Q160.988 263.767 160.819 263.868Q160.651 263.969 160.478 264.062Q160.304 264.154 160.127 264.238Q159.949 264.322 159.768 264.397Q159.587 264.472 159.402 264.539Q159.217 264.605 159.029 264.662Q158.841 264.719 158.651 264.766Q158.46 264.814 158.267 264.852Q158.075 264.891 157.881 264.919Q157.686 264.948 157.491 264.968Q157.296 264.987 157.099 264.996Q156.903 265.006 156.707 265.006Q156.511 265.006 156.314 264.996Q156.118 264.987 155.923 264.968Q155.727 264.948 155.533 264.92Q155.339 264.891 155.146 264.852Q154.954 264.814 154.763 264.766Q154.573 264.719 154.385 264.662Q154.197 264.605 154.012 264.539Q153.827 264.472 153.646 264.397Q153.464 264.322 153.287 264.238Q153.109 264.154 152.936 264.062Q152.763 263.969 152.595 263.868Q152.426 263.767 152.263 263.658Q152.1 263.549 151.942 263.432Q151.784 263.315 151.632 263.19Q151.481 263.066 151.335 262.934Q151.19 262.802 151.051 262.663L50.288 161.9Q50.1492 161.762 50.0173 161.616Q49.8854 161.471 49.7608 161.319Q49.6363 161.167 49.5193 161.009Q49.4023 160.852 49.2932 160.688Q49.1841 160.525 49.0832 160.357Q48.9822 160.188 48.8897 160.015Q48.7971 159.842 48.7131 159.664Q48.6292 159.487 48.554 159.305Q48.4789 159.124 48.4127 158.939Q48.3466 158.754 48.2896 158.566Q48.2326 158.378 48.1849 158.188Q48.1372 157.997 48.0989 157.805Q48.0605 157.612 48.0317 157.418Q48.0029 157.224 47.9837 157.028Q47.9644 156.833 47.9548 156.637Q47.9452 156.441 47.9452 156.244Q47.9452 156.048 47.9548 155.852Q47.9644 155.656 47.9837 155.46Q48.0029 155.265 48.0317 155.071Q48.0605 154.876 48.0989 154.684Q48.1372 154.491 48.1849 154.301Q48.2326 154.11 48.2896 153.922Q48.3466 153.734 48.4127 153.55Q48.4789 153.365 48.554 153.183Q48.6292 153.002 48.7131 152.824Q48.7971 152.647 48.8897 152.474Q48.9822 152.3 49.0832 152.132Q49.1841 151.964 49.2932 151.8Q49.4023 151.637 49.5193 151.479Q49.6363 151.322 49.7608 151.17Q49.8854 151.018 50.0173 150.873Q50.1492 150.727 50.288 150.588L151.051 49.8255Q151.19 49.6866 151.335 49.5547Q151.481 49.4229 151.632 49.2983Q151.784 49.1737 151.942 49.0567Q152.1 48.9398 152.263 48.8307Q152.426 48.7216 152.595 48.6206Q152.763 48.5197 152.936 48.4271Q153.109 48.3346 153.287 48.2506Q153.464 48.1666 153.646 48.0915Q153.827 48.0164 154.012 47.9502Q154.197 47.884 154.385 47.827Q154.573 47.77 154.763 47.7223Q154.954 47.6746 155.146 47.6363Q155.339 47.598 155.533 47.5692Q155.727 47.5404 155.923 47.5211Q156.118 47.5019 156.314 47.4922Q156.511 47.4826 156.707 47.4826Q156.903 47.4826 157.099 47.4922Q157.296 47.5019 157.491 47.5211Q157.686 47.5404 157.881 47.5692Q158.075 47.598 158.267 47.6363Q158.46 47.6746 158.65 47.7223Q158.841 47.77 159.029 47.827Q159.217 47.884 159.402 47.9502Q159.587 48.0164 159.768 48.0915Q159.949 48.1666 160.127 48.2506Q160.304 48.3346 160.478 48.4271Q160.651 48.5197 160.819 48.6206Q160.988 48.7216 161.151 48.8307Q161.314 48.9398 161.472 49.0567Q161.63 49.1737 161.781 49.2983Q161.933 49.4229 162.079 49.5547Q162.224 49.6866 162.363 49.8255Z" id="path_1" />
    <rect width="512" height="512" id="artboard_1" />
    <clipPath id="clip_1">
      <use xlink:href="#artboard_1" clip-rule="evenodd" />
    </clipPath>
  </defs>
  <g id="Icon" clip-path="url(#clip_1)">
    <g id="Logo" transform="translate(100 100)" artboard="9bbb8b1a-0766-4aea-bae6-ded216824ed1">
      <path d="M0 0L312 0L312 312L0 312L0 0Z" id="Rectángulo-3" fill="#B9595D" fill-rule="evenodd" stroke="none" />
      <path d="M156.59 28.0471L284.559 156.016L156.59 283.986L28.6206 156.016L156.59 28.0471Z" id="fondo" fill="#A12227" fill-rule="evenodd" stroke="none" filter="url(#filter_1)" />
      <g id="fondo2">
        <use stroke="none" fill="#FFFFFF" fill-opacity="0.8" xlink:href="#path_1" fill-rule="evenodd" filter="url(#filter_2)" />
      </g>
      <g id="ISL" fill="#A12227" filter="url(#filter_3)" transform="translate(90.58801 110.47342)">
        <path d="M64.8685 32.3778Q64.5616 29.2841 62.2222 27.571Q59.8827 25.8579 55.9196 25.8579Q51.8543 25.8579 49.681 27.5199Q47.5077 29.1818 47.5077 31.7131Q47.4565 34.5256 49.9239 35.9702Q52.3912 37.4148 55.7918 38.2074L60.4963 39.3324Q65.0474 40.3551 68.5886 42.2983Q72.1298 44.2415 74.1625 47.2969Q76.1952 50.3523 76.1952 54.7244Q76.1696 61.9091 70.8131 66.1662Q65.4565 70.4233 55.8685 70.4233Q46.3315 70.4233 40.6554 66.0767Q34.9793 61.7301 34.7747 53.2415L45.4878 53.2415Q45.769 57.179 48.5943 59.1605Q51.4196 61.142 55.7406 61.142Q59.9594 61.142 62.4778 59.3523Q64.9963 57.5625 65.0219 54.6989Q64.9963 52.0398 62.6952 50.608Q60.394 49.1761 56.1242 48.1534L50.4224 46.7216Q43.8003 45.1364 39.9651 41.6847Q36.1298 38.233 36.1554 32.4545Q36.1298 27.6989 38.6994 24.1321Q41.269 20.5653 45.769 18.5838Q50.269 16.6023 55.9963 16.6023Q61.8259 16.6023 66.1852 18.5966Q70.5446 20.5909 72.9736 24.1449Q75.4026 27.6989 75.4793 32.3778L64.8685 32.3778ZM27.3344 17.3182L27.3344 69.6818L16.2634 69.6818L16.2634 17.3182L27.3344 17.3182ZM83.6099 17.3182L83.6099 69.6818L117.13 69.6818L117.13 60.554L94.681 60.554L94.681 17.3182L83.6099 17.3182Z" />
      </g>
    </g>
  </g>
</svg>