<?xml version="1.0" encoding="utf-8"?>
<svg xmlns:xlink="http://www.w3.org/1999/xlink" xmlns="http://www.w3.org/2000/svg">
  <defs>
    <rect width="512" height="512" id="artboard_1" />
    <clipPath id="clip_1">
      <use xlink:href="#artboard_1" clip-rule="evenodd" />
    </clipPath>
  </defs>
  <g id="Icon" clip-path="url(#clip_1)">
    <use xlink:href="#artboard_1" stroke="none" fill="#FFFFFF" fill-opacity="0" />
    <g id="Logo" transform="translate(46.968628 46.02732)" artboard="ac158a85-6d1f-4430-a7c2-ee34d284a5dc">
      <path d="M210.007 1.07896e-05L420.014 210.007L210.007 420.014L-3.05176e-05 210.007L210.007 1.07896e-05Z" id="fondo" fill="#A12227" fill-rule="evenodd" stroke="none" />
      <path d="M215.855 32.1139L388.466 204.725Q388.605 204.864 388.737 205.009Q388.869 205.155 388.993 205.307Q389.118 205.458 389.235 205.616Q389.352 205.774 389.461 205.937Q389.57 206.1 389.671 206.269Q389.772 206.437 389.865 206.61Q389.957 206.784 390.041 206.961Q390.125 207.139 390.2 207.32Q390.275 207.501 390.341 207.686Q390.408 207.871 390.465 208.059Q390.522 208.247 390.569 208.438Q390.617 208.628 390.655 208.821Q390.694 209.013 390.723 209.207Q390.751 209.402 390.771 209.597Q390.79 209.793 390.799 209.989Q390.809 210.185 390.809 210.381Q390.809 210.577 390.799 210.774Q390.79 210.97 390.771 211.165Q390.751 211.361 390.723 211.555Q390.694 211.749 390.655 211.942Q390.617 212.134 390.569 212.325Q390.522 212.515 390.465 212.703Q390.408 212.891 390.342 213.076Q390.275 213.261 390.2 213.442Q390.125 213.624 390.041 213.801Q389.957 213.979 389.865 214.152Q389.772 214.325 389.671 214.493Q389.57 214.662 389.461 214.825Q389.352 214.988 389.235 215.146Q389.118 215.304 388.993 215.456Q388.869 215.607 388.737 215.753Q388.605 215.898 388.466 216.037L215.855 388.648Q215.716 388.787 215.571 388.919Q215.425 389.051 215.274 389.176Q215.122 389.3 214.964 389.417Q214.806 389.534 214.643 389.643Q214.48 389.752 214.311 389.853Q214.143 389.954 213.97 390.047Q213.797 390.139 213.619 390.223Q213.442 390.307 213.26 390.382Q213.079 390.458 212.894 390.524Q212.709 390.59 212.521 390.647Q212.333 390.704 212.143 390.752Q211.952 390.799 211.76 390.838Q211.567 390.876 211.373 390.905Q211.178 390.934 210.983 390.953Q210.788 390.972 210.592 390.982Q210.395 390.991 210.199 390.991Q210.003 390.991 209.807 390.982Q209.61 390.972 209.415 390.953Q209.22 390.934 209.025 390.905Q208.831 390.876 208.638 390.838Q208.446 390.799 208.255 390.752Q208.065 390.704 207.877 390.647Q207.689 390.59 207.504 390.524Q207.319 390.458 207.138 390.382Q206.956 390.307 206.779 390.223Q206.601 390.139 206.428 390.047Q206.255 389.954 206.087 389.853Q205.918 389.752 205.755 389.643Q205.592 389.534 205.434 389.417Q205.276 389.3 205.124 389.176Q204.973 389.051 204.827 388.919Q204.682 388.787 204.543 388.648L31.9317 216.037Q31.7929 215.898 31.661 215.753Q31.5291 215.607 31.4046 215.456Q31.28 215.304 31.163 215.146Q31.046 214.988 30.937 214.825Q30.8279 214.662 30.7269 214.493Q30.626 214.325 30.5334 214.152Q30.4408 213.979 30.3569 213.801Q30.2729 213.624 30.1978 213.442Q30.1226 213.261 30.0565 213.076Q29.9903 212.891 29.9333 212.703Q29.8763 212.515 29.8286 212.325Q29.7809 212.134 29.7426 211.942Q29.7043 211.749 29.6755 211.555Q29.6466 211.361 29.6274 211.165Q29.6082 210.97 29.5985 210.774Q29.5889 210.578 29.5889 210.381Q29.5889 210.185 29.5985 209.989Q29.6082 209.793 29.6274 209.597Q29.6466 209.402 29.6755 209.207Q29.7043 209.013 29.7426 208.821Q29.7809 208.628 29.8286 208.438Q29.8763 208.247 29.9333 208.059Q29.9903 207.871 30.0565 207.686Q30.1226 207.501 30.1978 207.32Q30.2729 207.139 30.3569 206.961Q30.4408 206.784 30.5334 206.61Q30.626 206.437 30.7269 206.269Q30.8279 206.1 30.937 205.937Q31.046 205.774 31.163 205.616Q31.28 205.458 31.4046 205.307Q31.5291 205.155 31.661 205.009Q31.7929 204.864 31.9317 204.725L204.543 32.1139Q204.682 31.9751 204.827 31.8432Q204.973 31.7113 205.125 31.5868Q205.276 31.4622 205.434 31.3452Q205.592 31.2282 205.755 31.1191Q205.918 31.01 206.087 30.9091Q206.255 30.8081 206.428 30.7156Q206.601 30.623 206.779 30.539Q206.956 30.4551 207.138 30.3799Q207.319 30.3048 207.504 30.2386Q207.689 30.1725 207.877 30.1155Q208.065 30.0585 208.255 30.0108Q208.446 29.9631 208.638 29.9248Q208.831 29.8864 209.025 29.8576Q209.22 29.8288 209.415 29.8096Q209.61 29.7903 209.807 29.7807Q210.003 29.7711 210.199 29.7711Q210.395 29.7711 210.591 29.7807Q210.788 29.7903 210.983 29.8096Q211.178 29.8288 211.373 29.8576Q211.567 29.8864 211.76 29.9248Q211.952 29.9631 212.143 30.0108Q212.333 30.0585 212.521 30.1155Q212.709 30.1725 212.894 30.2386Q213.079 30.3048 213.26 30.3799Q213.441 30.4551 213.619 30.539Q213.797 30.623 213.97 30.7156Q214.143 30.8081 214.311 30.9091Q214.48 31.01 214.643 31.1191Q214.806 31.2282 214.964 31.3452Q215.122 31.4622 215.274 31.5867Q215.425 31.7113 215.571 31.8432Q215.716 31.9751 215.855 32.1139Z" id="fondo2" fill="#FFFFFF" fill-opacity="0.8" fill-rule="evenodd" stroke="none" />
      <g id="ISL" fill="#A12227" transform="translate(107.6637 123.37295)">
        <path d="M106.313 64.7557Q105.699 58.5682 101.02 55.142Q96.3409 51.7159 88.4148 51.7159Q80.2841 51.7159 75.9375 55.0398Q71.5909 58.3636 71.5909 63.4261Q71.4886 69.0511 76.4233 71.9403Q81.358 74.8295 88.1591 76.4148L97.5682 78.6648Q106.67 80.7102 113.753 84.5966Q120.835 88.4829 124.901 94.5937Q128.966 100.705 128.966 109.449Q128.915 123.818 118.202 132.332Q107.489 140.847 88.3125 140.847Q69.2386 140.847 57.8864 132.153Q46.5341 123.46 46.125 106.483L67.5511 106.483Q68.1136 114.358 73.7642 118.321Q79.4148 122.284 88.0568 122.284Q96.4943 122.284 101.531 118.705Q106.568 115.125 106.619 109.398Q106.568 104.08 101.966 101.216Q97.3636 98.3523 88.8239 96.3068L77.4205 93.4432Q64.1761 90.2727 56.5057 83.3693Q48.8352 76.4659 48.8864 64.9091Q48.8352 55.3977 53.9744 48.2642Q59.1136 41.1307 68.1136 37.1676Q77.1136 33.2045 88.5682 33.2045Q100.227 33.2045 108.946 37.1932Q117.665 41.1818 122.523 48.2898Q127.381 55.3977 127.534 64.7557L106.313 64.7557ZM31.2443 34.6364L31.2443 139.364L9.10227 139.364L9.10227 34.6364L31.2443 34.6364ZM143.795 34.6364L143.795 139.364L210.835 139.364L210.835 121.108L165.938 121.108L165.938 34.6364L143.795 34.6364Z" />
      </g>
    </g>
  </g>
</svg>