<?xml version="1.0" encoding="utf-8"?>
<svg width="512px" height="512px" viewBox="0 0 512 512" version="1.1" xmlns:xlink="http://www.w3.org/1999/xlink" xmlns="http://www.w3.org/2000/svg">
  <defs>
    <filter filterUnits="userSpaceOnUse" color-interpolation-filters="sRGB" id="filter_1">
      <feFlood flood-opacity="0" result="BackgroundImageFix" />
      <feColorMatrix in="SourceAlpha" type="matrix" values="0 0 0 0 0 0 0 0 0 0 0 0 0 0 0 0 0 0 127 0" />
      <feMorphology radius="18" operator="dilate" in="SourceAlpha" result="effect0_dropShadow" />
      <feOffset dx="0" dy="0" />
      <feGaussianBlur stdDeviation="8.5" />
      <feColorMatrix type="matrix" values="0 0 0 0 0.9254902 0 0 0 0 0.827451 0 0 0 0 0.83137256 0 0 0 0.8980392 0" />
      <feBlend mode="normal" in2="BackgroundImageFix" result="effect0_dropShadow" />
      <feBlend mode="normal" in="SourceGraphic" in2="effect0_dropShadow" result="shape" />
    </filter>
    <filter filterUnits="userSpaceOnUse" color-interpolation-filters="sRGB" id="filter_2">
      <feFlood flood-opacity="0" result="BackgroundImageFix" />
      <feBlend mode="normal" in="SourceGraphic" in2="BackgroundImageFix" result="shape" />
      <feColorMatrix in="SourceAlpha" type="matrix" values="0 0 0 0 0 0 0 0 0 0 0 0 0 0 0 0 0 0 127 0" result="hardAlpha" />
      <feMorphology radius="4" operator="erode" in="SourceAlpha" result="effect0_innerShadow" />
      <feOffset dx="0" dy="2" />
      <feGaussianBlur stdDeviation="8" />
      <feComposite in2="hardAlpha" operator="arithmetic" k2="-1" k3="1" />
      <feColorMatrix type="matrix" values="0 0 0 0 0.39215687 0 0 0 0 0.39215687 0 0 0 0 0.39215687 0 0 0 0.49803922 0" />
      <feBlend mode="normal" in2="shape" result="effect0_innerShadow" />
    </filter>
    <filter filterUnits="userSpaceOnUse" color-interpolation-filters="sRGB" id="filter_3">
      <feFlood flood-opacity="0" result="BackgroundImageFix" />
      <feColorMatrix in="SourceAlpha" type="matrix" values="0 0 0 0 0 0 0 0 0 0 0 0 0 0 0 0 0 0 127 0" />
      <feOffset dx="2" dy="2" />
      <feGaussianBlur stdDeviation="2" />
      <feColorMatrix type="matrix" values="0 0 0 0 0.39215687 0 0 0 0 0.39215687 0 0 0 0 0.39215687 0 0 0 0.49803922 0" />
      <feBlend mode="normal" in2="BackgroundImageFix" result="effect0_dropShadow" />
      <feBlend mode="normal" in="SourceGraphic" in2="effect0_dropShadow" result="shape" />
    </filter>
    <path d="M162.374 49.8285L263.144 150.599Q263.283 150.738 263.415 150.883Q263.547 151.029 263.671 151.18Q263.796 151.332 263.913 151.49Q264.03 151.648 264.139 151.811Q264.248 151.974 264.349 152.143Q264.45 152.311 264.542 152.484Q264.635 152.657 264.719 152.835Q264.803 153.012 264.878 153.194Q264.953 153.375 265.019 153.56Q265.085 153.745 265.142 153.933Q265.199 154.121 265.247 154.311Q265.295 154.502 265.333 154.694Q265.371 154.887 265.4 155.081Q265.429 155.275 265.448 155.471Q265.468 155.666 265.477 155.862Q265.487 156.059 265.487 156.255Q265.487 156.451 265.477 156.647Q265.468 156.844 265.448 157.039Q265.429 157.234 265.4 157.429Q265.371 157.623 265.333 157.815Q265.295 158.008 265.247 158.199Q265.199 158.389 265.142 158.577Q265.085 158.765 265.019 158.95Q264.953 159.135 264.878 159.316Q264.803 159.497 264.719 159.675Q264.635 159.852 264.542 160.026Q264.45 160.199 264.349 160.367Q264.248 160.536 264.139 160.699Q264.03 160.862 263.913 161.02Q263.796 161.178 263.671 161.329Q263.547 161.481 263.415 161.627Q263.283 161.772 263.144 161.911L162.374 262.681Q162.235 262.82 162.089 262.952Q161.944 263.084 161.792 263.209Q161.64 263.333 161.482 263.45Q161.325 263.567 161.162 263.676Q160.998 263.785 160.83 263.886Q160.661 263.987 160.488 264.08Q160.315 264.172 160.138 264.256Q159.96 264.34 159.779 264.415Q159.597 264.49 159.412 264.557Q159.227 264.623 159.04 264.68Q158.852 264.737 158.661 264.784Q158.471 264.832 158.278 264.871Q158.085 264.909 157.891 264.938Q157.697 264.966 157.502 264.986Q157.306 265.005 157.11 265.015Q156.914 265.024 156.717 265.024Q156.521 265.024 156.325 265.015Q156.129 265.005 155.933 264.986Q155.738 264.966 155.544 264.938Q155.35 264.909 155.157 264.871Q154.964 264.832 154.774 264.784Q154.583 264.737 154.396 264.68Q154.208 264.623 154.023 264.557Q153.838 264.49 153.656 264.415Q153.475 264.34 153.297 264.256Q153.12 264.172 152.947 264.08Q152.774 263.987 152.605 263.886Q152.437 263.785 152.273 263.676Q152.11 263.567 151.952 263.45Q151.795 263.333 151.643 263.209Q151.491 263.084 151.346 262.952Q151.2 262.82 151.061 262.681L50.2911 161.911Q50.1522 161.772 50.0203 161.627Q49.8885 161.481 49.7639 161.329Q49.6393 161.178 49.5223 161.02Q49.4054 160.862 49.2963 160.699Q49.1872 160.536 49.0862 160.367Q48.9853 160.199 48.8927 160.026Q48.8001 159.852 48.7162 159.675Q48.6322 159.497 48.5571 159.316Q48.4819 159.135 48.4158 158.95Q48.3496 158.765 48.2926 158.577Q48.2356 158.389 48.1879 158.199Q48.1402 158.008 48.1019 157.815Q48.0636 157.623 48.0348 157.429Q48.006 157.234 47.9867 157.039Q47.9675 156.844 47.9578 156.647Q47.9482 156.451 47.9482 156.255Q47.9482 156.059 47.9578 155.862Q47.9675 155.666 47.9867 155.471Q48.006 155.275 48.0348 155.081Q48.0636 154.887 48.1019 154.694Q48.1402 154.502 48.1879 154.311Q48.2356 154.121 48.2926 153.933Q48.3496 153.745 48.4158 153.56Q48.4819 153.375 48.5571 153.194Q48.6322 153.012 48.7162 152.835Q48.8001 152.657 48.8927 152.484Q48.9853 152.311 49.0862 152.143Q49.1872 151.974 49.2963 151.811Q49.4054 151.648 49.5223 151.49Q49.6393 151.332 49.7639 151.18Q49.8885 151.029 50.0203 150.883Q50.1522 150.738 50.2911 150.599L151.061 49.8284Q151.2 49.6896 151.346 49.5577Q151.491 49.4259 151.643 49.3013Q151.795 49.1767 151.952 49.0597Q152.11 48.9428 152.273 48.8337Q152.437 48.7246 152.605 48.6236Q152.774 48.5227 152.947 48.4301Q153.12 48.3375 153.298 48.2536Q153.475 48.1696 153.656 48.0945Q153.838 48.0193 154.023 47.9532Q154.208 47.887 154.396 47.83Q154.583 47.773 154.774 47.7253Q154.964 47.6776 155.157 47.6393Q155.35 47.601 155.544 47.5722Q155.738 47.5434 155.933 47.5241Q156.129 47.5049 156.325 47.4952Q156.521 47.4856 156.718 47.4856Q156.914 47.4856 157.11 47.4952Q157.306 47.5049 157.502 47.5241Q157.697 47.5434 157.891 47.5722Q158.085 47.601 158.278 47.6393Q158.471 47.6776 158.661 47.7253Q158.852 47.773 159.04 47.83Q159.227 47.887 159.412 47.9532Q159.597 48.0193 159.779 48.0945Q159.96 48.1696 160.138 48.2536Q160.315 48.3376 160.488 48.4301Q160.661 48.5227 160.83 48.6236Q160.998 48.7246 161.162 48.8337Q161.325 48.9428 161.482 49.0597Q161.64 49.1767 161.792 49.3013Q161.944 49.4259 162.089 49.5577Q162.235 49.6896 162.374 49.8285Z" id="path_1" />
    <rect width="512" height="512" id="artboard_1" />
    <clipPath id="clip_1">
      <use xlink:href="#artboard_1" clip-rule="evenodd" />
    </clipPath>
  </defs>
  <g id="Icon-round" clip-path="url(#clip_1)">
    <g id="Logo" transform="translate(100 100)" artboard="d7210a17-7490-4849-bc79-5c41c6e596c6">
      <path d="M15.999 0L296.001 0Q296.394 0 296.786 0.0192715Q297.178 0.038543 297.569 0.0770395Q297.96 0.115536 298.349 0.173165Q298.737 0.230794 299.122 0.307416Q299.507 0.384039 299.888 0.47947Q300.269 0.574901 300.645 0.688911Q301.021 0.802922 301.391 0.935236Q301.761 1.06755 302.124 1.21785Q302.486 1.36815 302.841 1.53607Q303.196 1.704 303.543 1.88914Q303.889 2.07428 304.226 2.2762Q304.563 2.47812 304.89 2.69632Q305.216 2.91452 305.532 3.14848Q305.847 3.38245 306.151 3.63161Q306.454 3.88077 306.745 4.14452Q307.036 4.40828 307.314 4.686Q307.592 4.96372 307.855 5.25473Q308.119 5.54574 308.368 5.84934Q308.617 6.15294 308.851 6.46841Q309.085 6.78387 309.304 7.11043Q309.522 7.43699 309.724 7.77387Q309.926 8.11075 310.111 8.45712Q310.296 8.8035 310.464 9.15855Q310.632 9.51359 310.782 9.87645Q310.932 10.2393 311.065 10.6091Q311.197 10.9789 311.311 11.3547Q311.425 11.7306 311.52 12.1116Q311.616 12.4925 311.693 12.8777Q311.769 13.263 311.827 13.6515Q311.884 14.04 311.923 14.4308Q311.961 14.8217 311.981 15.214Q312 15.6062 312 15.999L312 296.001Q312 296.394 311.981 296.786Q311.961 297.178 311.923 297.569Q311.884 297.96 311.827 298.349Q311.769 298.737 311.693 299.122Q311.616 299.507 311.52 299.888Q311.425 300.269 311.311 300.645Q311.197 301.021 311.065 301.391Q310.932 301.761 310.782 302.124Q310.632 302.486 310.464 302.841Q310.296 303.196 310.111 303.543Q309.926 303.889 309.724 304.226Q309.522 304.563 309.304 304.89Q309.085 305.216 308.851 305.532Q308.617 305.847 308.368 306.151Q308.119 306.454 307.855 306.745Q307.592 307.036 307.314 307.314Q307.036 307.592 306.745 307.855Q306.454 308.119 306.151 308.368Q305.847 308.617 305.532 308.851Q305.216 309.085 304.89 309.304Q304.563 309.522 304.226 309.724Q303.889 309.926 303.543 310.111Q303.196 310.296 302.841 310.464Q302.486 310.632 302.124 310.782Q301.761 310.932 301.391 311.065Q301.021 311.197 300.645 311.311Q300.269 311.425 299.888 311.52Q299.507 311.616 299.122 311.693Q298.737 311.769 298.349 311.827Q297.96 311.884 297.569 311.923Q297.178 311.961 296.786 311.981Q296.394 312 296.001 312L15.999 312Q15.6062 312 15.214 311.981Q14.8217 311.961 14.4308 311.923Q14.04 311.884 13.6515 311.827Q13.263 311.769 12.8777 311.693Q12.4925 311.616 12.1116 311.52Q11.7306 311.425 11.3547 311.311Q10.9789 311.197 10.6091 311.065Q10.2393 310.932 9.87645 310.782Q9.51359 310.632 9.15855 310.464Q8.8035 310.296 8.45712 310.111Q8.11075 309.926 7.77387 309.724Q7.43699 309.522 7.11043 309.304Q6.78387 309.085 6.46841 308.851Q6.15294 308.617 5.84934 308.368Q5.54574 308.119 5.25473 307.855Q4.96372 307.592 4.686 307.314Q4.40828 307.036 4.14452 306.745Q3.88077 306.454 3.63161 306.151Q3.38245 305.847 3.14848 305.532Q2.91452 305.216 2.69632 304.89Q2.47812 304.563 2.2762 304.226Q2.07428 303.889 1.88914 303.543Q1.704 303.196 1.53607 302.841Q1.36815 302.486 1.21785 302.124Q1.06755 301.761 0.935236 301.391Q0.802922 301.021 0.688911 300.645Q0.574901 300.269 0.47947 299.888Q0.384039 299.507 0.307416 299.122Q0.230794 298.737 0.173165 298.349Q0.115536 297.96 0.0770395 297.569Q0.038543 297.178 0.0192715 296.786Q0 296.394 0 296.001L0 15.999Q0 15.6062 0.0192715 15.214Q0.038543 14.8217 0.0770395 14.4308Q0.115536 14.04 0.173165 13.6515Q0.230794 13.263 0.307416 12.8777Q0.384039 12.4925 0.47947 12.1116Q0.574901 11.7306 0.688911 11.3547Q0.802922 10.9789 0.935236 10.6091Q1.06755 10.2393 1.21785 9.87645Q1.36815 9.51359 1.53607 9.15855Q1.704 8.8035 1.88914 8.45712Q2.07428 8.11075 2.2762 7.77387Q2.47812 7.43699 2.69632 7.11043Q2.91452 6.78387 3.14848 6.46841Q3.38245 6.15294 3.63161 5.84934Q3.88077 5.54574 4.14452 5.25473Q4.40828 4.96372 4.686 4.686Q4.96372 4.40828 5.25473 4.14452Q5.54574 3.88077 5.84934 3.63161Q6.15294 3.38245 6.46841 3.14848Q6.78387 2.91452 7.11043 2.69632Q7.43699 2.47812 7.77387 2.2762Q8.11075 2.07428 8.45712 1.88914Q8.8035 1.704 9.15855 1.53607Q9.51359 1.36815 9.87645 1.21785Q10.2393 1.06755 10.6091 0.935236Q10.9789 0.802922 11.3547 0.688911Q11.7306 0.574901 12.1116 0.47947Q12.4925 0.384039 12.8777 0.307416Q13.263 0.230794 13.6515 0.173165Q14.04 0.115536 14.4308 0.0770395Q14.8217 0.038543 15.214 0.0192715Q15.6062 0 15.999 0Z" id="Rectángulo-3" fill="#B9595D" fill-rule="evenodd" stroke="none" />
      <path d="M156.601 28.049L284.579 156.027L156.601 284.005L28.6226 156.027L156.601 28.049Z" id="fondo" fill="#A12227" fill-rule="evenodd" stroke="none" filter="url(#filter_1)" />
      <g id="fondo2">
        <use stroke="none" fill="#FFFFFF" fill-opacity="0.8" xlink:href="#path_1" fill-rule="evenodd" filter="url(#filter_2)" />
      </g>
      <g id="ISL" fill="#A12227" filter="url(#filter_3)" transform="translate(90.44263 113.321594)">
        <path d="M64.8665 32.3778Q64.5597 29.2841 62.2202 27.571Q59.8807 25.8579 55.9176 25.8579Q51.8523 25.8579 49.679 27.5199Q47.5057 29.1818 47.5057 31.7131Q47.4545 34.5256 49.9219 35.9702Q52.3892 37.4148 55.7898 38.2074L60.4943 39.3324Q65.0455 40.3551 68.5866 42.2983Q72.1278 44.2415 74.1605 47.2969Q76.1932 50.3523 76.1932 54.7244Q76.1676 61.9091 70.8111 66.1662Q65.4545 70.4233 55.8665 70.4233Q46.3295 70.4233 40.6534 66.0767Q34.9773 61.7301 34.7727 53.2415L45.4858 53.2415Q45.767 57.179 48.5923 59.1605Q51.4176 61.142 55.7386 61.142Q59.9574 61.142 62.4759 59.3523Q64.9943 57.5625 65.0199 54.6989Q64.9943 52.0398 62.6932 50.608Q60.392 49.1761 56.1222 48.1534L50.4205 46.7216Q43.7983 45.1364 39.9631 41.6847Q36.1278 38.233 36.1534 32.4545Q36.1278 27.6989 38.6974 24.1321Q41.267 20.5653 45.767 18.5838Q50.267 16.6023 55.9943 16.6023Q61.8239 16.6023 66.1832 18.5966Q70.5426 20.5909 72.9716 24.1449Q75.4006 27.6989 75.4773 32.3778L64.8665 32.3778ZM27.3324 17.3182L27.3324 69.6818L16.2614 69.6818L16.2614 17.3182L27.3324 17.3182ZM83.608 17.3182L83.608 69.6818L117.128 69.6818L117.128 60.554L94.679 60.554L94.679 17.3182L83.608 17.3182Z" />
      </g>
    </g>
  </g>
</svg>