<?xml version="1.0" encoding="utf-8"?>
<svg width="360px" height="640px" viewBox="0 0 360 640" version="1.1" xmlns:xlink="http://www.w3.org/1999/xlink" xmlns="http://www.w3.org/2000/svg">
  <defs>
    <path d="M143.033 5.39478e-06L286.065 143.033L143.032 286.065L-1.52588e-05 143.032L143.033 5.39478e-06Z" id="path_1" />
    <rect width="360" height="640" id="artboard_1" />
    <clipPath id="clip_1">
      <use xlink:href="#artboard_1" clip-rule="evenodd" />
    </clipPath>
  </defs>
  <g id="Splash-Screem" clip-path="url(#clip_1)">
    <use xlink:href="#artboard_1" stroke="none" fill="#A12227" />
    <g id="Logo" transform="translate(37.031616 177.02731)" artboard="0b59f244-f972-450a-8ead-09f5da519a43">
      <g id="fondo">
        <use xlink:href="#path_1" fill="none" stroke="#FFFFFF" stroke-opacity="0.2509804" stroke-width="20" stroke-linejoin="round" />
        <use stroke="none" fill="#A12227" xlink:href="#path_1" fill-rule="evenodd" />
      </g>
      <path d="M148.82 23.6761L262.775 137.631Q262.914 137.77 263.046 137.916Q263.177 138.061 263.302 138.213Q263.427 138.365 263.544 138.522Q263.66 138.68 263.77 138.843Q263.879 139.007 263.98 139.175Q264.081 139.344 264.173 139.517Q264.266 139.69 264.35 139.867Q264.434 140.045 264.509 140.226Q264.584 140.408 264.65 140.593Q264.716 140.778 264.773 140.965Q264.83 141.153 264.878 141.344Q264.926 141.534 264.964 141.727Q265.002 141.919 265.031 142.114Q265.06 142.308 265.079 142.503Q265.098 142.699 265.108 142.895Q265.118 143.091 265.118 143.287Q265.118 143.484 265.108 143.68Q265.098 143.876 265.079 144.071Q265.06 144.267 265.031 144.461Q265.002 144.655 264.964 144.848Q264.926 145.041 264.878 145.231Q264.83 145.422 264.773 145.609Q264.716 145.797 264.65 145.982Q264.584 146.167 264.509 146.348Q264.434 146.53 264.35 146.707Q264.266 146.885 264.173 147.058Q264.081 147.231 263.98 147.4Q263.879 147.568 263.77 147.731Q263.66 147.895 263.544 148.052Q263.427 148.21 263.302 148.362Q263.177 148.514 263.046 148.659Q262.914 148.805 262.775 148.944L148.82 262.899Q148.681 263.038 148.535 263.17Q148.39 263.301 148.238 263.426Q148.086 263.551 147.929 263.668Q147.771 263.785 147.608 263.894Q147.444 264.003 147.276 264.104Q147.107 264.205 146.934 264.297Q146.761 264.39 146.584 264.474Q146.406 264.558 146.225 264.633Q146.043 264.708 145.858 264.774Q145.673 264.84 145.486 264.897Q145.298 264.954 145.107 265.002Q144.917 265.05 144.724 265.088Q144.531 265.126 144.337 265.155Q144.143 265.184 143.948 265.203Q143.752 265.222 143.556 265.232Q143.36 265.242 143.164 265.242Q142.967 265.242 142.771 265.232Q142.575 265.222 142.38 265.203Q142.184 265.184 141.99 265.155Q141.796 265.126 141.603 265.088Q141.41 265.05 141.22 265.002Q141.029 264.954 140.842 264.897Q140.654 264.84 140.469 264.774Q140.284 264.708 140.102 264.633Q139.921 264.558 139.744 264.474Q139.566 264.39 139.393 264.297Q139.22 264.205 139.051 264.104Q138.883 264.003 138.72 263.894Q138.556 263.785 138.399 263.668Q138.241 263.551 138.089 263.426Q137.937 263.301 137.792 263.17Q137.646 263.038 137.507 262.899L23.5521 148.944Q23.4133 148.805 23.2814 148.659Q23.1495 148.514 23.0249 148.362Q22.9004 148.21 22.7834 148.053Q22.6664 147.895 22.5573 147.732Q22.4482 147.568 22.3473 147.4Q22.2463 147.231 22.1538 147.058Q22.0612 146.885 21.9772 146.708Q21.8933 146.53 21.8181 146.349Q21.743 146.167 21.6768 145.982Q21.6107 145.797 21.5537 145.61Q21.4967 145.422 21.449 145.231Q21.4013 145.041 21.3629 144.848Q21.3246 144.656 21.2958 144.461Q21.267 144.267 21.2478 144.072Q21.2285 143.876 21.2189 143.68Q21.2093 143.484 21.2093 143.288Q21.2093 143.091 21.2189 142.895Q21.2285 142.699 21.2478 142.504Q21.267 142.308 21.2958 142.114Q21.3246 141.92 21.3629 141.727Q21.4013 141.534 21.449 141.344Q21.4967 141.153 21.5537 140.966Q21.6107 140.778 21.6768 140.593Q21.743 140.408 21.8181 140.226Q21.8933 140.045 21.9772 139.868Q22.0612 139.69 22.1538 139.517Q22.2463 139.344 22.3473 139.175Q22.4482 139.007 22.5573 138.844Q22.6664 138.68 22.7834 138.523Q22.9004 138.365 23.0249 138.213Q23.1495 138.061 23.2814 137.916Q23.4133 137.77 23.5521 137.631L137.507 23.6761Q137.646 23.5373 137.792 23.4054Q137.937 23.2736 138.089 23.149Q138.241 23.0244 138.398 22.9074Q138.556 22.7905 138.719 22.6814Q138.883 22.5723 139.051 22.4713Q139.22 22.3704 139.393 22.2778Q139.566 22.1852 139.743 22.1013Q139.921 22.0173 140.102 21.9422Q140.284 21.867 140.469 21.8009Q140.653 21.7347 140.841 21.6777Q141.029 21.6207 141.22 21.573Q141.41 21.5253 141.603 21.487Q141.795 21.4487 141.99 21.4199Q142.184 21.3911 142.379 21.3718Q142.575 21.3526 142.771 21.3429Q142.967 21.3333 143.163 21.3333Q143.36 21.3333 143.556 21.3429Q143.752 21.3526 143.947 21.3718Q144.143 21.3911 144.337 21.4199Q144.531 21.4487 144.724 21.487Q144.917 21.5253 145.107 21.573Q145.297 21.6207 145.485 21.6777Q145.673 21.7347 145.858 21.8009Q146.043 21.867 146.224 21.9422Q146.406 22.0173 146.583 22.1013Q146.761 22.1852 146.934 22.2778Q147.107 22.3704 147.276 22.4713Q147.444 22.5723 147.607 22.6814Q147.771 22.7905 147.928 22.9074Q148.086 23.0244 148.238 23.149Q148.39 23.2736 148.535 23.4054Q148.681 23.5373 148.82 23.6761L148.82 23.6761Z" id="fondo2" fill="#FFFFFF" fill-opacity="0.8" fill-rule="evenodd" stroke="none" />
      <g id="ISL" fill="#A12227" transform="translate(61.34955 85.28631)">
        <path d="M80.8735 43.1704Q80.4644 39.0455 77.3451 36.7614Q74.2257 34.4773 68.9417 34.4773Q63.5212 34.4773 60.6235 36.6932Q57.7257 38.9091 57.7257 42.2841Q57.6576 46.0341 60.9473 47.9602Q64.2371 49.8864 68.7712 50.9432L75.0439 52.4432Q81.1121 53.8068 85.8337 56.3977Q90.5553 58.9886 93.2655 63.0625Q95.9757 67.1364 95.9757 72.9659Q95.9417 82.5455 88.7996 88.2216Q81.6576 93.8977 68.8735 93.8977Q56.1576 93.8977 48.5894 88.1023Q41.0212 82.3068 40.7485 70.9886L55.0326 70.9886Q55.4076 76.2386 59.1746 78.8807Q62.9416 81.5227 68.703 81.5227Q74.328 81.5227 77.686 79.1364Q81.0439 76.75 81.078 72.9318Q81.0439 69.3864 77.9757 67.4773Q74.9076 65.5682 69.2144 64.2045L61.6121 62.2954Q52.7826 60.1818 47.6689 55.5795Q42.5553 50.9773 42.5894 43.2727Q42.5553 36.9318 45.9814 32.1761Q49.4076 27.4205 55.4076 24.7784Q61.4076 22.1364 69.0439 22.1364Q76.8166 22.1364 82.6292 24.7954Q88.4417 27.4545 91.6803 32.1932Q94.9189 36.9318 95.0212 43.1704L80.8735 43.1704ZM30.828 23.0909L30.828 92.9091L16.0666 92.9091L16.0666 23.0909L30.828 23.0909ZM105.862 23.0909L105.862 92.9091L150.555 92.9091L150.555 80.7386L120.623 80.7386L120.623 23.0909L105.862 23.0909Z" />
      </g>
    </g>
    <g id="by-RandA-Media-Lab,-Group" fill="#FFFFFF" transform="translate(102 602)" artboard="b2fdf0bb-b818-4bbd-a192-047ec39a01e2">
      <path d="M1.03125 12.2832L1.03125 3.16602L2.00391 3.16602L2.00391 5.38086Q2.00391 6.125 1.95703 6.7168L2.00391 6.7168Q2.68359 5.75586 4.01953 5.75586Q5.27957 5.75586 5.9767 6.62012Q6.67383 7.48438 6.67383 9.06641Q6.67383 10.6484 5.97089 11.5244Q5.26794 12.4004 4.01953 12.4004Q3.39258 12.4004 2.87402 12.1689Q2.35547 11.9375 2.00391 11.457L1.93359 11.457L1.72852 12.2832L1.03125 12.2832ZM38.6484 9.08984Q38.6484 7.50195 39.3492 6.62305Q40.0499 5.74414 41.2995 5.74414Q42.6083 5.74414 43.3066 6.69336L43.3828 6.69336L43.3418 6.23047L43.3184 5.7793L43.3184 3.16602L44.291 3.16602L44.291 12.2832L43.5 12.2832L43.3711 11.4219L43.3184 11.4219Q42.6434 12.4004 41.2995 12.4004Q40.0441 12.4004 39.3463 11.5391Q38.6484 10.6777 38.6484 9.08984ZM74.2793 9.08984Q74.2793 7.50195 74.98 6.62305Q75.6808 5.74414 76.9304 5.74414Q78.2391 5.74414 78.9375 6.69336L79.0137 6.69336L78.9727 6.23047L78.9492 5.7793L78.9492 3.16602L79.9219 3.16602L79.9219 12.2832L79.1309 12.2832L79.002 11.4219L78.9492 11.4219Q78.2743 12.4004 76.9304 12.4004Q75.6749 12.4004 74.9771 11.5391Q74.2793 10.6777 74.2793 9.08984ZM107.719 3.16602L107.719 12.2832L108.416 12.2832L108.621 11.457L108.691 11.457Q109.043 11.9375 109.562 12.1689Q110.08 12.4004 110.707 12.4004Q111.955 12.4004 112.658 11.5244Q113.361 10.6484 113.361 9.06641Q113.361 7.48438 112.664 6.62012Q111.967 5.75586 110.707 5.75586Q109.371 5.75586 108.691 6.7168L108.645 6.7168Q108.691 6.125 108.691 5.38086L108.691 3.16602L107.719 3.16602ZM82.0595 3.63184Q81.9082 3.78711 81.9082 4.12109Q81.9082 4.44922 82.0595 4.61035Q82.2108 4.77148 82.4377 4.77148Q82.6903 4.77148 82.8735 4.61035Q83.0566 4.44922 83.0566 4.12109Q83.0566 3.79297 82.8735 3.63477Q82.6903 3.47656 82.4377 3.47656Q82.2108 3.47656 82.0595 3.63184ZM121.368 5.65918Q120.832 6.66406 120.832 8Q120.832 10.0859 121.916 11.2432Q123 12.4004 124.945 12.4004Q125.871 12.4004 126.574 12.2905Q127.277 12.1807 127.957 11.9668L127.957 7.79492L125.045 7.79492L125.045 8.68555L126.961 8.68555L126.961 11.3332Q126.111 11.5391 125.221 11.5391Q123.58 11.5391 122.733 10.6396Q121.887 9.74014 121.887 8Q121.887 6.34766 122.766 5.41602Q123.645 4.48438 125.209 4.48438Q126.281 4.48438 127.441 4.97656L127.828 4.09766Q126.645 3.59375 125.273 3.59375Q123.92 3.59375 122.912 4.12402Q121.904 4.6543 121.368 5.65918ZM48.7148 3.68164L45.3281 12.2832L46.3359 12.2832L47.3906 9.55273L50.8242 9.55273L51.8906 12.2832L52.9219 12.2832L49.5527 3.68164L48.7148 3.68164ZM17.6953 3.7168L17.6953 12.2832L18.6914 12.2832L18.6914 8.71484L20.4785 8.71484L22.5527 12.2832L23.7305 12.2832L21.4043 8.42966Q23.127 7.83136 23.127 6.13049Q23.127 4.92072 22.374 4.31876Q21.6211 3.7168 20.0449 3.7168L17.6953 3.7168ZM57.2168 12.2832L57.2168 3.7168L58.7168 3.7168L61.4297 10.7832L61.4766 10.7832L64.2129 3.7168L65.7012 3.7168L65.7012 12.2832L64.7051 12.2832L64.7051 6.76367Q64.7051 5.81445 64.7871 4.70117L64.7402 4.70117L61.8105 12.2832L61.0078 12.2832L58.1016 4.68945L58.0547 4.68945Q58.1367 5.5918 58.1367 6.83398L58.1367 12.2832L57.2168 12.2832ZM94.9629 3.7168L94.9629 12.2832L99.7383 12.2832L99.7383 11.3926L95.959 11.3926L95.959 3.7168L94.9629 3.7168ZM20.0566 7.86523L18.6914 7.86523L18.6914 4.57813L19.9863 4.57813Q21.0938 4.57813 21.5947 4.95445Q22.0957 5.33078 22.0957 6.1835Q22.0957 7.02432 21.6035 7.44478Q21.1113 7.86523 20.0566 7.86523ZM50.5137 8.66211L47.7422 8.66211L48.75 6.00781Q48.9902 5.33398 49.1191 4.77148Q49.3242 5.50391 49.5176 6.00781L50.5137 8.66211ZM31.6406 5.86133L31.6406 12.2832L32.6133 12.2832L32.6133 8.9072Q32.6133 7.65063 33.082 7.10461Q33.5508 6.55859 34.5586 6.55859Q35.3203 6.55859 35.6777 6.94609Q36.0352 7.33359 36.0352 8.12039L36.0352 12.2832L37.0078 12.2832L37.0078 8.09375Q37.0078 6.86328 36.4219 6.30371Q35.8359 5.74414 34.6758 5.74414Q34.0137 5.74414 33.4746 6.00191Q32.9355 6.25967 32.6367 6.72888L32.5898 6.72888L32.4316 5.86133L31.6406 5.86133ZM68.3092 6.6582Q67.5469 7.57227 67.5469 9.125Q67.5469 10.666 68.3679 11.5332Q69.189 12.4004 70.609 12.4004Q71.2574 12.4004 71.716 12.3037Q72.1746 12.207 72.6887 11.9844L72.6887 11.1172Q71.6782 11.5508 70.6443 11.5508Q69.6582 11.5508 69.1153 10.9648Q68.5724 10.3789 68.543 9.24805L72.9609 9.24805L72.9609 8.63281Q72.9609 7.33203 72.2602 6.53809Q71.5595 5.74414 70.3566 5.74414Q69.0715 5.74414 68.3092 6.6582ZM129.867 12.2832L129.867 5.86133L130.658 5.86133L130.777 7.05618L130.827 7.05618Q131.186 6.42667 131.689 6.0854Q132.193 5.74414 132.797 5.74414Q133.225 5.74414 133.564 5.81491L133.43 6.72256Q133.031 6.63477 132.727 6.63477Q131.947 6.63477 131.394 7.26694Q130.84 7.89911 130.84 8.84146L130.84 12.2832L129.867 12.2832ZM135.191 6.61856Q134.408 7.49298 134.408 9.06055Q134.408 10.076 134.77 10.8331Q135.133 11.5903 135.799 11.9954Q136.464 12.4004 137.323 12.4004Q138.714 12.4004 139.502 11.517Q140.291 10.6336 140.291 9.06055Q140.291 7.53391 139.499 6.63902Q138.708 5.74414 137.364 5.74414Q135.974 5.74414 135.191 6.61856ZM149.379 5.86133L149.379 15.166L150.352 15.166L150.352 12.5233Q150.352 12.0193 150.281 11.4568L150.352 11.4568Q150.703 11.9374 151.222 12.1689Q151.74 12.4004 152.367 12.4004Q153.616 12.4004 154.319 11.5229Q155.021 10.6453 155.021 9.06055Q155.021 7.48712 154.33 6.61563Q153.639 5.74414 152.367 5.74414Q151.723 5.74414 151.225 5.97586Q150.727 6.20758 150.352 6.72888L150.305 6.72888L150.17 5.86133L149.379 5.86133ZM24.4863 10.5143Q24.4863 8.57394 27.602 8.48047L28.6934 8.44485L28.6934 8.04156Q28.6934 7.27646 28.3688 6.91167Q28.0442 6.54688 27.3306 6.54688Q26.5293 6.54688 25.5176 7.0451L25.2153 6.29858Q25.6899 6.04453 26.2553 5.90019Q26.8207 5.75586 27.3891 5.75586Q28.5363 5.75586 29.0895 6.26563Q29.6426 6.77539 29.6426 7.90039L29.6426 12.2832L28.9219 12.2832L28.7285 11.3798L28.6816 11.3798Q28.2021 11.9771 27.7254 12.1887Q27.2487 12.4004 26.5352 12.4004Q25.5755 12.4004 25.0309 11.9099Q24.4863 11.4194 24.4863 10.5143ZM84.5449 10.5143Q84.5449 8.57394 87.6606 8.48047L88.752 8.44485L88.752 8.04156Q88.752 7.27646 88.4274 6.91167Q88.1028 6.54688 87.3892 6.54688Q86.5879 6.54688 85.5762 7.0451L85.2739 6.29858Q85.7485 6.04453 86.3139 5.90019Q86.8793 5.75586 87.4477 5.75586Q88.5949 5.75586 89.1481 6.26563Q89.7012 6.77539 89.7012 7.90039L89.7012 12.2832L88.9805 12.2832L88.7871 11.3798L88.7402 11.3798Q88.2607 11.9771 87.784 12.1887Q87.3073 12.4004 86.5938 12.4004Q85.6341 12.4004 85.0895 11.9099Q84.5449 11.4194 84.5449 10.5143ZM100.564 10.5143Q100.564 8.57394 103.68 8.48047L104.771 8.44485L104.771 8.04156Q104.771 7.27646 104.447 6.91167Q104.122 6.54688 103.409 6.54688Q102.607 6.54688 101.596 7.0451L101.293 6.29858Q101.768 6.04453 102.333 5.90019Q102.899 5.75586 103.467 5.75586Q104.614 5.75586 105.168 6.26563Q105.721 6.77539 105.721 7.90039L105.721 12.2832L105 12.2832L104.807 11.3798L104.76 11.3798Q104.28 11.9771 103.804 12.1887Q103.327 12.4004 102.613 12.4004Q101.654 12.4004 101.109 11.9099Q100.564 11.4194 100.564 10.5143ZM7.36523 5.86133L8.4082 5.86133L9.81445 9.52097Q10.2773 10.774 10.3887 11.3302L10.4355 11.3302Q10.5117 11.0316 10.7549 10.3085Q10.998 9.58533 12.3457 5.86133L13.3887 5.86133L10.6289 13.1738Q10.2188 14.2578 9.6709 14.7119Q9.12305 15.166 8.32617 15.166Q7.88086 15.166 7.44727 15.0657L7.44727 14.2813Q7.76953 14.3516 8.16797 14.3516Q9.16992 14.3516 9.59766 13.2273L9.95508 12.3139L7.36523 5.86133ZM81.9902 5.86133L81.9902 12.2832L82.8809 12.2832L82.8809 5.86133L81.9902 5.86133ZM141.943 10.0625L141.943 5.86133L142.939 5.86133L142.939 10.0273Q142.939 10.8125 143.296 11.1992Q143.653 11.5859 144.413 11.5859Q145.42 11.5859 145.885 11.0352Q146.35 10.4844 146.35 9.23633L146.35 5.86133L147.322 5.86133L147.322 12.2832L146.531 12.2832L146.381 11.4219L146.326 11.4219Q146.028 11.8965 145.499 12.1484Q144.969 12.4004 144.291 12.4004Q143.114 12.4004 142.529 11.8438Q141.943 11.2871 141.943 10.0625ZM39.6445 9.10156Q39.6445 10.332 40.0964 10.959Q40.5483 11.5859 41.4228 11.5859Q42.4204 11.5859 42.8694 11.0439Q43.3184 10.502 43.3184 9.29492L43.3184 9.08984Q43.3184 7.72461 42.8635 7.1416Q42.4087 6.55859 41.411 6.55859Q40.5542 6.55859 40.0994 7.22363Q39.6445 7.88867 39.6445 9.10156ZM71.9297 8.45703L68.5664 8.45703Q68.6486 7.56641 69.1094 7.0625Q69.5701 6.55859 70.3449 6.55859Q71.1079 6.55859 71.5188 7.04785Q71.9297 7.53711 71.9297 8.45703ZM75.2754 9.10156Q75.2754 10.332 75.7273 10.959Q76.1792 11.5859 77.0536 11.5859Q78.0513 11.5859 78.5002 11.0439Q78.9492 10.502 78.9492 9.29492L78.9492 9.08984Q78.9492 7.72461 78.4944 7.1416Q78.0396 6.55859 77.0419 6.55859Q76.1851 6.55859 75.7302 7.22363Q75.2754 7.88867 75.2754 9.10156ZM135.897 10.9399Q135.404 10.2939 135.404 9.06055Q135.404 7.81543 135.891 7.18701Q136.378 6.55859 137.335 6.55859Q138.303 6.55859 138.799 7.1958Q139.295 7.83301 139.295 9.06055Q139.295 10.2997 138.799 10.9428Q138.303 11.5859 137.347 11.5859Q136.39 11.5859 135.897 10.9399ZM150.803 11.0016Q150.352 10.4172 150.352 9.06055L150.352 8.8432Q150.363 7.651 150.803 7.1048Q151.242 6.55859 152.227 6.55859Q153.082 6.55859 153.554 7.20171Q154.025 7.84482 154.025 9.04874Q154.025 10.2352 153.554 10.9106Q153.082 11.5859 152.25 11.5859Q151.254 11.5859 150.803 11.0016ZM2.00391 9.06641Q2.00391 10.4199 2.45508 11.0029Q2.90625 11.5859 3.90234 11.5859Q4.79883 11.5859 5.23828 10.9326Q5.67773 10.2793 5.67773 9.05469Q5.67773 7.80078 5.23828 7.18555Q4.79883 6.57031 3.87891 6.57031Q2.88281 6.57031 2.44336 7.1416Q2.00391 7.71289 2.00391 9.06641ZM109.143 11.0029Q108.691 10.4199 108.691 9.06641Q108.691 7.71289 109.131 7.1416Q109.57 6.57031 110.566 6.57031Q111.486 6.57031 111.926 7.18555Q112.365 7.80078 112.365 9.05469Q112.365 10.2793 111.926 10.9326Q111.486 11.5859 110.59 11.5859Q109.594 11.5859 109.143 11.0029ZM25.5176 10.526Q25.5176 11.0559 25.8363 11.3327Q26.1551 11.6094 26.7282 11.6094Q27.6347 11.6094 28.1523 11.1089Q28.6699 10.6085 28.6699 9.70764L28.6699 9.125L27.6991 9.16602Q26.541 9.20721 26.0293 9.52811Q25.5176 9.849 25.5176 10.526ZM85.5762 10.526Q85.5762 11.0559 85.8949 11.3327Q86.2137 11.6094 86.7868 11.6094Q87.6933 11.6094 88.2109 11.1089Q88.7285 10.6085 88.7285 9.70764L88.7285 9.125L87.7577 9.16602Q86.5996 9.20721 86.0879 9.52811Q85.5762 9.849 85.5762 10.526ZM101.596 10.526Q101.596 11.0559 101.914 11.3327Q102.233 11.6094 102.806 11.6094Q103.713 11.6094 104.23 11.1089Q104.748 10.6085 104.748 9.70764L104.748 9.125L103.777 9.16602Q102.619 9.20721 102.107 9.52811Q101.596 9.849 101.596 10.526ZM114.41 13.8301Q114.568 13.2207 114.759 12.3242Q114.949 11.4277 115.025 10.8887L116.086 10.8887L116.174 11.0234Q116.022 11.6094 115.737 12.3857Q115.451 13.1621 115.142 13.8301L114.41 13.8301Z" />
    </g>
  </g>
</svg>